<?xml version="1.0" encoding="UTF-8" standalone="no"?>
<svg
   xmlns:dc="http://purl.org/dc/elements/1.1/"
   xmlns:cc="http://creativecommons.org/ns#"
   xmlns:rdf="http://www.w3.org/1999/02/22-rdf-syntax-ns#"
   xmlns:svg="http://www.w3.org/2000/svg"
   xmlns="http://www.w3.org/2000/svg"
   xmlns:sodipodi="http://sodipodi.sourceforge.net/DTD/sodipodi-0.dtd"
   xmlns:inkscape="http://www.inkscape.org/namespaces/inkscape"
   width="58.515358mm"
   height="30.188259mm"
   viewBox="0 0 58.515358 30.188259"
   version="1.1"
   id="svg113"
   inkscape:version="1.0.1 (3bc2e813f5, 2020-09-07)"
   sodipodi:docname="goIcon.svg">
  <defs
     id="defs107" />
  <sodipodi:namedview
     id="base"
     pagecolor="#ffffff"
     bordercolor="#666666"
     borderopacity="1.0"
     inkscape:pageopacity="0.0"
     inkscape:pageshadow="2"
     inkscape:zoom="0.35"
     inkscape:cx="284.86592"
     inkscape:cy="128.47747"
     inkscape:document-units="mm"
     inkscape:current-layer="layer1"
     inkscape:document-rotation="0"
     showgrid="false"
     fit-margin-top="2"
     fit-margin-left="2"
     fit-margin-right="2"
     fit-margin-bottom="2"
     inkscape:window-width="1366"
     inkscape:window-height="705"
     inkscape:window-x="-8"
     inkscape:window-y="-8"
     inkscape:window-maximized="1" />
  <metadata
     id="metadata110">
    <rdf:RDF>
      <cc:Work
         rdf:about="">
        <dc:format>image/svg+xml</dc:format>
        <dc:type
           rdf:resource="http://purl.org/dc/dcmitype/StillImage" />
        <dc:title></dc:title>
      </cc:Work>
    </rdf:RDF>
  </metadata>
  <g
     inkscape:label="Layer 1"
     inkscape:groupmode="layer"
     id="layer1"
     transform="translate(-30.462558,-114.17367)">
    <path
       style="fill:#008000;stroke-width:0.127614"
       d="m 32.511258,141.42626 -0.0487,-0.41036 1.77493,0.0864 1.774929,0.0864 1.575221,-0.15079 1.575229,-0.15079 0.966631,-0.15855 0.966629,-0.15854 -0.0295,-1.0311 -0.0295,-1.03109 0.11691,-1.10348 0.11691,-1.10348 0.14888,-0.76259 0.14888,-0.76258 0.11283,-0.47192 0.112831,-0.47192 0.18498,-0.57728 0.184969,-0.57729 0.2557,-0.60438 0.255691,-0.60437 1.02329,-1.5446 1.02328,-1.5446 0.12375,-0.64203 0.12375,-0.64203 -0.075,-0.37087 -0.075,-0.37086 -0.26428,-0.39399 -0.26428,-0.39399 -0.40462,-0.37084 -0.40461,-0.37084 -0.46012,-0.15113 -0.46012,-0.15112 -0.671681,0.0664 -0.67168,0.0664 -0.54954,0.24199 -0.54954,0.242 -0.66323,0.46204 -0.66323,0.46204 -0.55945,0.49355 -0.559449,0.49355 -0.0518,-0.12918 -0.0518,-0.12917 0.46081,-0.47545 0.460809,-0.47544 0.8635,-0.63143 0.86349,-0.63143 1.04046,-0.55992 1.04047,-0.55993 1.298031,-0.4781 1.29804,-0.47811 0.59769,-0.44231 0.59768,-0.4423 0.86972,-1.18208 0.86973,-1.18208 0.25523,-0.73181 0.25524,-0.7318 0.0601,-0.3838 0.0601,-0.38379 0.16305,-0.22211 0.16305,-0.22211 1.87833,-0.0947 1.87832,-0.0947 1.65052,-0.0502 1.65051,-0.0502 1.26049,-0.0569 1.26049,-0.0569 0.30255,0.21975 0.302539,0.21976 0.0963,0.82467 0.0963,0.82467 0.0281,1.2106 0.0281,1.2106 0.0498,1.71781 0.0498,1.71781 0.0376,0.88499 0.0376,0.88499 0.005,0.45366 0.005,0.45366 0.0158,0.19627 0.0158,0.19627 0.0277,0.89218 0.0277,0.89218 -0.314249,0.30705 -0.31425,0.30704 -0.40525,0.0739 -0.40524,0.0739 0.018,0.0659 0.0181,0.0659 0.256549,0.40446 0.25655,0.40445 0.111,0.38179 0.11099,0.3818 -0.0128,0.71031 -0.0128,0.71032 -0.2822,0.63885 -0.2822,0.63885 -0.55708,0.50508 -0.55707,0.50509 -0.77928,0.42268 -0.77928,0.42268 -0.89835,0.25719 -0.89835,0.25718 -1.11789,0.047 -1.1179,0.047 -0.51179,-0.0606 -0.511789,-0.0606 -0.64242,-0.20243 -0.642411,-0.20243 -0.814529,-0.50816 -0.814531,-0.50817 -0.384399,-0.55356 -0.384401,-0.55355 -0.179729,-0.44855 -0.17974,-0.44854 -0.0639,-0.74417 -0.0639,-0.74418 0.097,-0.64906 0.097,-0.64907 -0.3825,-0.28247 -0.382489,-0.28248 -0.42867,0.199 -0.428661,0.19901 -0.82872,1.13304 -0.82872,1.13304 -0.26348,0.83659 -0.263489,0.83659 -0.0618,0.27167 -0.0618,0.27168 -0.145601,0.68569 -0.14559,0.68568 -0.158,1.54907 -0.15799,1.54907 -0.005,1.09323 -0.005,1.09324 -0.92394,0.20343 -0.92394,0.20343 -1.029559,0.14222 -1.029551,0.14221 -2.047549,0.0442 -2.047551,0.0442 -0.70946,-0.0919 -0.70945,-0.0919 -0.0487,-0.41036 z m 17.97902,-6.03539 0.63602,0.17327 0.78762,0.0471 0.78763,0.0472 0.75711,-0.13401 0.75712,-0.13401 0.77135,-0.30287 0.77134,-0.30288 0.63149,-0.41303 0.63148,-0.41302 0.319299,-0.3919 0.319301,-0.3919 0.1959,-0.28608 0.195899,-0.28607 -0.0513,-0.60613 -0.0513,-0.60613 -0.22156,-0.37054 -0.22156,-0.37055 -0.41039,-0.40739 -0.41039,-0.4074 -1.13671,0.0355 -1.13671,0.0355 -1.02473,0.045 -1.02474,0.045 -0.0669,0.0906 -0.0669,0.0906 0.11559,1.03912 0.11559,1.03911 0.39469,0.77457 0.39469,0.77457 0.279,0.20604 0.27899,0.20605 0.0128,0.22639 0.0128,0.22639 -0.26433,0.015 -0.26433,0.015 -0.61108,-0.38966 -0.61108,-0.38965 -0.39879,-0.70523 -0.39879,-0.70524 -0.29013,-1.00619 -0.29013,-1.0062 -0.0881,-0.0651 -0.0881,-0.0651 -0.10534,-0.16496 -0.10533,-0.16496 -1.22699,0.0718 -1.22698,0.0718 -0.13096,0.11099 -0.13097,0.111 -0.0883,0.54164 -0.0883,0.54165 0.0472,0.64119 0.0472,0.6412 0.19324,0.39594 0.19325,0.39595 0.31637,0.43086 0.31636,0.43087 0.65792,0.398 0.65792,0.39801 0.63601,0.17327 z m -0.21164,-8.18801 0.94104,-0.0636 0.63167,0.004 0.63167,0.004 1.00863,-0.0567 1.00863,-0.0566 1.63771,-0.0505 1.63771,-0.0505 0.0447,-0.29337 0.0447,-0.29338 0.084,-1.52438 0.084,-1.52438 -0.0314,-0.2328 -0.0314,-0.2328 0.0522,-0.0707 0.0522,-0.0707 -0.0415,-0.42708 -0.0415,-0.42707 -0.0213,-0.80756 -0.0213,-0.80756 -0.24608,-1.49123 -0.24607,-1.49123 -0.85281,0.0564 -0.85281,0.0564 -0.87663,0.006 -0.87662,0.006 -1.1444,0.0459 -1.1444,0.0459 -1.35176,0.0583 -1.35177,0.0583 -0.091,0.25571 -0.091,0.25571 -0.0912,1.67769 -0.0913,1.67769 0.0517,0.44502 0.0516,0.44502 0.021,0.71914 0.021,0.71915 0.23161,1.71781 0.23161,1.71782 0.0438,0.0324 0.0438,0.0324 z m -0.65649,-2.20084 -0.16736,-1.48768 -0.0362,-0.28871 -0.0361,-0.28871 -0.008,-1.03732 -0.008,-1.03732 -0.022,-0.0956 -0.022,-0.0956 0.0922,-1.23625 0.0922,-1.23626 1.015779,-0.0412 1.015781,-0.0412 1.229529,-0.0538 1.229531,-0.0538 1.202519,-0.0204 1.202521,-0.0204 0.273149,-4.9e-4 0.27315,-5e-4 0.135931,0.93718 0.13593,0.93718 0.0795,1.6271 0.0795,1.6271 -0.0415,1.04333 -0.0415,1.04332 -0.0581,0.56192 -0.0581,0.56192 -0.470601,0.0261 -0.4706,0.0261 -0.878839,0.008 -0.87884,0.008 -0.91183,0.0532 -0.91184,0.0532 -1.39912,0.0298 -1.39912,0.0298 -0.0348,-0.0257 -0.0348,-0.0257 z m 3.91445,0.93332 1.32459,-0.0751 0.91197,2.9e-4 0.91197,2.9e-4 0.0507,-0.0764 0.0507,-0.0764 -0.0228,-0.45778 -0.0228,-0.45777 -0.584969,0.009 -0.58497,0.009 -1.57269,0.078 -1.572691,0.078 -0.37215,0.18319 -0.372139,0.18319 -0.142751,0.1933 -0.142749,0.1933 0.018,0.1196 0.018,0.1196 0.39013,0.0259 0.39013,0.0259 z m 0.67249,-2.66155 1.46872,-0.023 0.64034,-0.0563 0.64033,-0.0563 -0.0277,-1.01786 -0.0277,-1.01786 -1.595229,0.0418 -1.59523,0.0418 -0.55568,0.0277 -0.55567,0.0277 -0.40693,0.14936 -0.40692,0.14937 -0.1747,0.23513 -0.17471,0.23514 0.0652,0.43336 0.0652,0.43337 0.586,0.20979 0.586,0.20979 1.46873,-0.0229 z m -0.91712,-3.72544 1.14533,0.0119 1.11278,-0.0653 1.11278,-0.0653 -0.0749,-0.5103 -0.0749,-0.5103 -1.0046,0.0304 -1.0046,0.0304 -1.58975,0.075 -1.58974,0.075 -0.081,0.008 -0.081,0.008 0.0762,0.2128 0.0762,0.21281 0.41592,0.23697 0.41591,0.23696 z m -20.45078,20.12513 0.008,-0.46618 0.23311,-1.13875 0.2331,-1.13875 0.312519,-0.95902 0.312521,-0.95901 0.36934,-0.83774 0.36933,-0.83774 0.27329,-0.51205 0.2733,-0.51206 0.111099,-0.23523 0.11111,-0.23524 0.513161,-0.81083 0.51317,-0.81083 0.381519,-0.74942 0.381511,-0.74942 0.094,-0.54657 0.094,-0.54657 0.67046,-0.55459 0.67046,-0.55459 0.658919,-0.43918 0.65892,-0.43918 0.75805,-0.14899 0.75804,-0.14899 0.513981,0.16329 0.51398,0.16328 0.43885,0.37243 0.43884,0.37244 0.24343,0.45906 0.24343,0.45905 -0.0966,0.65877 -0.0966,0.65877 -0.22935,0.46519 -0.22934,0.46519 -0.52395,0.68875 -0.52395,0.68874 -0.51933,1.15436 -0.519321,1.15436 -0.17789,0.66586 -0.177889,0.66585 -0.189101,1.10595 -0.189099,1.10595 -0.0482,1.13358 -0.0482,1.13357 0.0666,0.35659 0.0666,0.35659 -1.06832,0.19182 -1.06831,0.19182 -1.395751,0.10483 -1.39574,0.10482 -0.873209,-0.0399 -0.87322,-0.0399 -0.52473,-0.082 -0.52474,-0.082 z m 3.835099,-1.34285 0.24899,-0.16268 0.0566,-0.19618 0.0566,-0.19618 -0.068,-0.24347 -0.068,-0.24347 -0.22123,-0.16843 -0.22123,-0.16842 -0.28044,0.0422 -0.28045,0.0422 -0.21274,0.28805 -0.21274,0.28806 0.0514,0.19894 0.0514,0.19895 0.1725,0.19605 0.1725,0.19604 0.25295,0.0455 0.25294,0.0455 z m 3.33746,-8.20255 0.34617,0.009 0.22139,-0.29977 0.22139,-0.29977 -0.13207,-0.35664 -0.13206,-0.35665 -0.28423,-0.1169 -0.284229,-0.1169 -0.278741,0.15488 -0.27875,0.15489 -0.0819,0.28291 -0.0819,0.28292 0.106211,0.2458 0.10621,0.24581 0.103179,0.081 0.103171,0.081 0.346159,0.009 z m 3.991791,-8.34367 0.55724,-0.716 0.0525,-0.48943 0.0525,-0.48944 -0.50941,-0.37158 -0.50941,-0.37157 -0.83253,-0.0246 -0.832531,-0.0246 -0.19115,-0.14117 -0.19115,-0.14117 0.0709,-0.44281 0.0709,-0.44281 0.329731,-0.3067 0.329729,-0.30671 0.731761,-0.1407 0.73176,-0.14071 0.61181,0.53252 0.61182,0.53252 0.46857,0.1539 0.46857,0.1539 0.51717,-0.0328 0.51717,-0.0328 0.34813,-0.2071 0.34814,-0.2071 -0.38171,0.79095 -0.38171,0.79096 -0.6747,0.78891 -0.6747,0.78892 -0.66707,0.4881 -0.66706,0.4881 -0.43128,0.11851 -0.43129,0.11851 z m 26.910599,20.14323 -0.244809,-0.31294 -0.31646,-0.38769 -0.31646,-0.3877 -0.3732,-0.71916 -0.3732,-0.71917 -0.19703,-0.69986 -0.19703,-0.69986 -0.129821,-0.90559 -0.129831,-0.9056 0.0761,-0.96701 0.0761,-0.96701 0.1481,-0.76315 0.148109,-0.76316 0.38037,-0.98823 0.38037,-0.98823 0.31549,-0.95682 0.315481,-0.95683 0.249251,-1.08507 0.249237,-1.08506 0.0595,-0.7493 0.0595,-0.7493 -0.0531,-0.90827 -0.0531,-0.90827 -0.0404,-0.27128 -0.0404,-0.27128 -0.17345,-0.63263 -0.17344,-0.63263 -0.374631,-0.76365 -0.374618,-0.76365 -0.191032,-0.14108 -0.191029,-0.14108 0.103258,-0.0682 0.103262,-0.0682 0.963189,-0.0153 0.963189,-0.0153 1.631763,-0.0614 1.631759,-0.0614 1.30215,-0.0339 1.302139,-0.0339 2.84544,-0.11957 2.84544,-0.11957 1.00961,-0.008 1.009611,-0.008 0.15902,0.11744 0.15903,0.11745 0.393869,0.76754 0.393859,0.76754 0.179512,0.64583 0.179509,0.64584 0.0973,0.78735 0.0973,0.78736 -0.0403,1.03556 -0.0402,1.03556 -0.329779,1.49997 -0.329769,1.49997 -0.438041,1.15105 -0.438039,1.15105 -0.301691,0.93368 -0.301689,0.93369 -0.0918,0.67944 -0.0918,0.67944 0.0021,0.55659 0.0021,0.5566 0.0381,0.48997 0.0381,0.48997 0.0605,0.45537 0.0605,0.45538 0.183438,0.6114 0.183441,0.61141 0.112239,0.2768 0.112231,0.2768 0.211859,0.41993 0.21186,0.41993 0.681821,0.93024 0.681821,0.93024 -0.550262,0.0107 -0.550249,0.0107 -1.289489,0.0468 -1.289492,0.0468 -0.84247,0.0124 -0.842479,0.0124 -1.28266,0.0533 -1.282671,0.0533 -1.3057,0.0495 -1.3057,0.0495 -2.577378,0.0879 -2.577391,0.0879 -0.0602,-0.0607 -0.0602,-0.0607 z m 2.73509,-5.996 1.80204,-1.29564 0.203549,1.47991 0.203552,1.47992 0.163201,0.47715 0.163189,0.47716 0.102558,-0.13887 0.102553,-0.13886 0.228488,-0.74355 0.228481,-0.74354 0.38117,-0.83379 0.381158,-0.83378 0.190032,-0.25731 0.190029,-0.25731 0.49607,0.45605 0.496081,0.45604 0.936299,0.7729 0.9363,0.7729 -0.111181,-0.4939 -0.11117,-0.49389 -0.18456,-1.11367 -0.184549,-1.11368 0.006,-0.40809 0.006,-0.40809 1.980488,-0.009 1.980501,-0.009 0.009,-0.10595 0.009,-0.10596 -0.981339,-0.77488 -0.981351,-0.77488 -0.331779,-0.24888 -0.331782,-0.24889 0.0447,-0.0582 0.0447,-0.0582 2.005171,-1.21605 2.005169,-1.21606 0.0222,-0.0278 0.0222,-0.0278 -1.355262,0.0629 -1.355249,0.0629 -0.738201,0.0911 -0.738201,0.0911 -0.007,-0.0745 -0.007,-0.0745 0.527319,-0.84379 0.527331,-0.84379 0.50387,-1.05191 0.50388,-1.05191 -0.0828,-0.0611 -0.0827,-0.0611 -0.0949,0.12824 -0.0949,0.12824 -1.527159,1.09316 -1.527159,1.09316 -0.139412,0.0961 -0.139419,0.0961 -0.116131,-1.08428 -0.116189,-1.08434 -0.18763,-0.68754 -0.187632,-0.68754 -0.0819,-0.19058 -0.0819,-0.19059 -0.144571,0.34065 -0.14456,0.34064 2.64e-4,0.15891 2.65e-4,0.15891 -0.474348,1.07746 -0.47435,1.07747 -0.22356,0.4436 -0.223562,0.4436 -0.144849,-0.19302 -0.144859,-0.19301 -1.34339,-1.08092 -1.34339,-1.08092 0.136498,0.45961 0.136491,0.4596 0.21786,1.4772 0.21785,1.47721 -0.0673,0.0911 -0.0673,0.0911 -0.503611,-0.0162 -0.503621,-0.0162 -1.480019,0.0142 -1.48001,0.0142 0.01011,0.067 0.01011,0.067 0.57449,0.48687 0.5745,0.48688 0.608952,0.46431 0.608949,0.4643 0.0718,0.18529 0.0718,0.18529 -1.17425,0.70348 -1.17425,0.70349 -0.739319,0.45661 -0.739331,0.45661 0.01209,0.0806 0.01209,0.0806 1.413118,-0.11007 1.413132,-0.11008 0.57526,-0.003 0.57527,-0.003 -0.405032,0.6839 -0.405019,0.68391 -0.63537,1.23618 -0.635371,1.23617 0.0524,0.0379 0.0524,0.0379 1.802048,-1.29564 z m 0.729091,-4.71549 0.02291,-0.40884 0.266629,-0.46151 0.266631,-0.46152 0.396669,-0.19526 0.39666,-0.19526 0.43085,-0.0131 0.430851,-0.0131 0.198598,0.14668 0.198602,0.14667 -0.20338,0.20674 -0.20338,0.20675 -0.254201,-0.13723 -0.254209,-0.13722 -0.318191,0.10674 -0.31819,0.10674 -0.242279,0.32805 -0.242271,0.32805 -0.0576,0.20839 -0.0576,0.2084 0.28107,0.20757 0.281069,0.20758 0.308531,-0.0623 0.308531,-0.0623 0.126701,-0.17156 0.126698,-0.17156 -0.0966,-0.0713 -0.0966,-0.0713 -0.13925,0.0558 -0.139261,0.0558 -0.0966,-0.0713 -0.0966,-0.0713 0.14646,-0.19832 0.146468,-0.19832 0.478919,0.008 0.478931,0.008 0.003,0.0592 0.003,0.0591 -0.139808,0.43601 -0.139811,0.43601 -0.13779,0.18657 -0.137779,0.18656 -0.630582,0.0948 -0.630579,0.0948 -0.344061,-0.25409 -0.344059,-0.2541 z m 2.896489,-0.17168 0.0369,-0.48831 0.486352,-0.57695 0.486349,-0.57694 0.45706,-0.034 0.457052,-0.034 0.307797,0.1266 0.307801,0.1266 0.147449,0.31055 0.147442,0.31054 -0.120311,0.388 -0.12032,0.388 -0.219879,0.29774 -0.21989,0.29774 -0.407691,0.20663 -0.407689,0.20662 -0.350871,0.015 -0.35088,0.015 -0.33681,-0.24522 -0.336819,-0.24523 0.0369,-0.48831 z m 1.07687,0.43379 0.33994,0.008 0.337611,-0.31402 0.3376,-0.31403 0.0505,-0.34663 0.0505,-0.34664 -0.176591,-0.13042 -0.17658,-0.13041 -0.368628,0.0164 -0.368631,0.0164 -0.31996,0.43324 -0.319961,0.43324 0.0854,0.28962 0.0854,0.28961 0.0517,0.0433 0.0517,0.0433 0.33995,0.008 z m 1.847602,0.16953 0.0916,-0.31644 0.256331,-9.5e-4 0.256318,-9.6e-4 -0.0557,0.27345 -0.0557,0.27344 -0.292233,0.0439 -0.292219,0.0439 z m 0.499398,-1.51733 0.163089,-0.85429 0.255672,0.0373 0.25567,0.0373 -0.01349,0.1632 -0.01349,0.16321 -0.250528,0.63055 -0.250542,0.63055 -0.154721,0.0233 -0.154717,0.0233 z m -20.970719,-7.94839 -0.0501,-0.42226 0.108571,-0.0703 0.108569,-0.0703 1.003631,-0.0701 1.003628,-0.0701 0.113091,0.0821 0.113091,0.0821 0.0329,0.32978 0.0329,0.32978 -0.14301,0.12112 -0.14301,0.12111 -1.02716,0.0577 -1.02716,0.0577 -0.0379,-0.028 -0.0379,-0.028 -0.0501,-0.42226 z m -0.0581,-2.91391 -0.02389,-1.50046 0.0377,-0.0511 0.0377,-0.0511 1.93013,-0.0778 1.93013,-0.0777 0.791811,-0.01 0.791821,-0.01 0.140478,-0.0518 0.14048,-0.0518 0.36172,-0.35507 0.36172,-0.35507 0.43185,0.10879 0.431861,0.10878 0.28502,0.28677 0.285019,0.28676 0.152641,-0.0612 0.152638,-0.0612 0.216832,0.16013 0.216828,0.16013 0.0556,0.27555 0.0556,0.27554 1.3687,-0.0565 1.368708,-0.0565 0.730951,-0.006 0.730959,-0.006 1.419911,-0.0716 1.419921,-0.0716 1.60416,-0.0492 1.604169,-0.0492 1.62823,-0.0566 1.62823,-0.0566 1.530789,-0.0606 1.530792,-0.0605 0.12037,0.25353 0.120369,0.25353 -0.0818,0.28257 -0.0818,0.28257 -0.658529,-0.007 -0.658532,-0.007 -1.056248,0.0504 -1.056262,0.0504 -1.79909,0.0618 -1.799079,0.0618 -3.392041,0.1125 -3.39203,0.1125 -1.380479,0.0672 -1.380479,0.0672 -0.02021,0.36018 -0.02019,0.36019 -0.173662,0.23428 -0.173649,0.23428 -1.730981,0.0701 -1.730989,0.0701 -0.925419,0.0371 -0.925431,0.0371 -1.5645,0.0532 -1.564499,0.0532 -0.02389,-1.50047 z"
       id="path96" />
  </g>
</svg>
